<svg width="140" height="156" viewBox="0 0 140 156" fill="none" xmlns="http://www.w3.org/2000/svg">
<path d="M125 126V17.7377C125 16.2444 123.4 15 121 15C118.6 15 117 16.2444 117 17.7377V126H125Z" fill="#F8B50E"/>
<path d="M118.807 22.245C119.423 22.1185 120 22.589 120 23.2178V70.737C120 71.368 119.419 71.839 118.802 71.7087L4.66801 47.6281C3.61429 47.4058 3.61835 45.9001 4.67325 45.6835L118.807 22.245Z" fill="#1836CB"/>
<path d="M28.3678 44.2255C27.7253 44.0135 27.0635 44.492 27.0635 45.1686V70.6171C27.0635 71.2964 27.7302 71.7752 28.3739 71.5582L66.5283 58.6971C67.4326 58.3923 67.4285 57.1119 66.5223 56.8129L28.3678 44.2255Z" fill="#1836CB"/>
<path d="M123 24C129.627 24 135 18.6274 135 12C135 5.37258 129.627 0 123 0C116.373 0 111 5.37258 111 12C111 18.6274 116.373 24 123 24Z" fill="#1836CB"/>
<rect x="74" y="91" width="61" height="65" fill="#747474"/>
<path d="M140 73.9487V68.2554C140 65.4087 138.518 63 135.765 63C133.012 63 131.529 65.4087 131.529 68.2554V73.9487H118.824V68.2554C118.824 65.4087 117.341 63 114.588 63C111.835 63 110.353 65.4087 110.353 68.2554V73.9487H97.6471V68.2554C97.6471 65.4087 96.1648 63 93.4118 63C90.6589 63 89.1765 65.4087 89.1765 68.2554V73.9487H76.4707V68.2554C76.4707 65.4087 74.9883 63 72.2354 63C69.4824 63 68.0001 65.4087 68.0001 68.2554V73.9487L68 103H76.4707H104H131.529H140V73.9487Z" fill="#383838"/>
<path d="M120 89C121.657 89 123 87.6569 123 86C123 84.3431 121.657 83 120 83C118.343 83 117 84.3431 117 86C117 87.6569 118.343 89 120 89Z" fill="#9B9B9B"/>
<path d="M104 89C105.657 89 107 87.6569 107 86C107 84.3431 105.657 83 104 83C102.343 83 101 84.3431 101 86C101 87.6569 102.343 89 104 89Z" fill="#9B9B9B"/>
<path d="M88 89C89.6569 89 91 87.6569 91 86C91 84.3431 89.6569 83 88 83C86.3431 83 85 84.3431 85 86C85 87.6569 86.3431 89 88 89Z" fill="#9B9B9B"/>
</svg>
