<svg width="190" height="156" viewBox="0 0 190 156" fill="none" xmlns="http://www.w3.org/2000/svg">
<path d="M80 127V21.6637C80 20.2108 78.4 19 76 19C73.6 19 72 20.2108 72 21.6637V127H80Z" fill="#F8B50E"/>
<path d="M63 145V103.061C63 102.482 61.4 102 59 102C56.6 102 55 102.482 55 103.061V145H63Z" fill="#F8B50E"/>
<path d="M74 24C80.6274 24 86 18.6274 86 12C86 5.37258 80.6274 0 74 0C67.3726 0 62 5.37258 62 12C62 18.6274 67.3726 24 74 24Z" fill="#CB188E"/>
<path d="M78.1415 22.2491C77.5548 22.1211 77 22.5679 77 23.1684V70.8248C77 71.4275 77.5587 71.8747 78.1467 71.7429L185.85 47.5926C186.833 47.3723 186.829 45.9701 185.845 45.7554L78.1415 22.2491Z" fill="#CB188E"/>
<path d="M66.8554 84.254C67.4428 84.1236 68 84.5707 68 85.1725V113C68 113.602 67.4429 114.049 66.8554 113.919L4.14015 100.005C3.15738 99.7869 3.15737 98.3859 4.14014 98.1679L66.8554 84.254Z" fill="#CB188E"/>
<path d="M13.2426 97.6057C12.656 97.478 12.1015 97.9248 12.1015 98.5251V116.827C12.1015 117.429 12.6591 117.876 13.2467 117.745L54.8227 108.496C55.807 108.277 55.8039 106.873 54.8185 106.658L13.2426 97.6057Z" fill="#CB188E"/>
<rect x="76" y="86" width="61" height="65" fill="#747474"/>
<path d="M142 68.9487V63.2554C142 60.4087 140.518 58 137.765 58C135.012 58 133.529 60.4087 133.529 63.2554V68.9487H120.824V63.2554C120.824 60.4087 119.341 58 116.588 58C113.835 58 112.353 60.4087 112.353 63.2554V68.9487H99.6471V63.2554C99.6471 60.4087 98.1648 58 95.4118 58C92.6589 58 91.1765 60.4087 91.1765 63.2554V68.9487H78.4707V63.2554C78.4707 60.4087 76.9883 58 74.2354 58C71.4824 58 70.0001 60.4087 70.0001 63.2554V68.9487L70 98H78.4707H106H133.529H142V68.9487Z" fill="#383838"/>
<path d="M122 84C123.657 84 125 82.6569 125 81C125 79.3431 123.657 78 122 78C120.343 78 119 79.3431 119 81C119 82.6569 120.343 84 122 84Z" fill="#9B9B9B"/>
<path d="M106 84C107.657 84 109 82.6569 109 81C109 79.3431 107.657 78 106 78C104.343 78 103 79.3431 103 81C103 82.6569 104.343 84 106 84Z" fill="#9B9B9B"/>
<path d="M90 84C91.6569 84 93 82.6569 93 81C93 79.3431 91.6569 78 90 78C88.3431 78 87 79.3431 87 81C87 82.6569 88.3431 84 90 84Z" fill="#9B9B9B"/>
<path d="M112 126.949V121.255C112 118.409 110.518 116 107.765 116C105.012 116 103.529 118.409 103.529 121.255V126.949H90.8236V121.255C90.8236 118.409 89.3412 116 86.5883 116C83.8353 116 82.353 118.409 82.353 121.255V126.949H69.6471V121.255C69.6471 118.409 68.1648 116 65.4118 116C62.6589 116 61.1765 118.409 61.1765 121.255V126.949H48.4707V121.255C48.4707 118.409 46.9883 116 44.2354 116C41.4824 116 40.0001 118.409 40.0001 121.255V126.949L40 156H112V126.949Z" fill="#747474"/>
<mask id="mask0_805_1393" style="mask-type:alpha" maskUnits="userSpaceOnUse" x="40" y="116" width="72" height="40">
<path d="M112 126.949V121.255C112 118.409 110.518 116 107.765 116C105.012 116 103.529 118.409 103.529 121.255V126.949H90.8236V121.255C90.8236 118.409 89.3412 116 86.5883 116C83.8353 116 82.353 118.409 82.353 121.255V126.949H69.6471V121.255C69.6471 118.409 68.1648 116 65.4118 116C62.6589 116 61.1765 118.409 61.1765 121.255V126.949H48.4707V121.255C48.4707 118.409 46.9883 116 44.2354 116C41.4824 116 40.0001 118.409 40.0001 121.255V126.949L40 156H112V126.949Z" fill="#545454"/>
</mask>
<g mask="url(#mask0_805_1393)">
<path d="M48.4999 116H112L112 144.5L48.4999 125.848V116Z" fill="#383838"/>
</g>
<path d="M92 142C93.6569 142 95 140.657 95 139C95 137.343 93.6569 136 92 136C90.3431 136 89 137.343 89 139C89 140.657 90.3431 142 92 142Z" fill="#9B9B9B"/>
<path d="M76 142C77.6569 142 79 140.657 79 139C79 137.343 77.6569 136 76 136C74.3431 136 73 137.343 73 139C73 140.657 74.3431 142 76 142Z" fill="#9B9B9B"/>
<path d="M60 142C61.6569 142 63 140.657 63 139C63 137.343 61.6569 136 60 136C58.3431 136 57 137.343 57 139C57 140.657 58.3431 142 60 142Z" fill="#9B9B9B"/>
</svg>
