<svg width="156" height="156" viewBox="0 0 156 156" fill="none" xmlns="http://www.w3.org/2000/svg">
<path d="M99 126V17.7377C99 16.2444 97.4 15 95 15C92.6 15 91 16.2444 91 17.7377V126H99Z" fill="#F8B50E"/>
<path d="M92.755 22.3264C93.3845 22.1614 94 22.6363 94 23.2871V70.6655C94 71.3191 93.3796 71.7944 92.7486 71.6245L3.60852 47.6151C2.62532 47.3503 2.63 45.9537 3.61496 45.6955L92.755 22.3264Z" fill="#1836CB"/>
<path d="M22.5784 44.3758C21.9238 44.1001 21.1998 44.5807 21.1998 45.2911V70.4914C21.1998 71.205 21.93 71.6857 22.5855 71.4036L52.1816 58.668C52.9858 58.322 52.9814 57.1803 52.1746 56.8405L22.5784 44.3758Z" fill="#1836CB"/>
<path d="M97 24C103.627 24 109 18.6274 109 12C109 5.37258 103.627 0 97 0C90.3726 0 85 5.37258 85 12C85 18.6274 90.3726 24 97 24Z" fill="#1836CB"/>
<rect x="48" y="91" width="61" height="65" fill="#747474"/>
<path d="M114 73.9487V68.2554C114 65.4087 112.518 63 109.765 63C107.012 63 105.529 65.4087 105.529 68.2554V73.9487H92.8236V68.2554C92.8236 65.4087 91.3412 63 88.5883 63C85.8353 63 84.353 65.4087 84.353 68.2554V73.9487H71.6471V68.2554C71.6471 65.4087 70.1648 63 67.4118 63C64.6589 63 63.1765 65.4087 63.1765 68.2554V73.9487H50.4707V68.2554C50.4707 65.4087 48.9883 63 46.2354 63C43.4824 63 42.0001 65.4087 42.0001 68.2554V73.9487L42 103H50.4707H78H105.529H114V73.9487Z" fill="#383838"/>
<path d="M94 89C95.6569 89 97 87.6569 97 86C97 84.3431 95.6569 83 94 83C92.3431 83 91 84.3431 91 86C91 87.6569 92.3431 89 94 89Z" fill="#9B9B9B"/>
<path d="M78 89C79.6569 89 81 87.6569 81 86C81 84.3431 79.6569 83 78 83C76.3431 83 75 84.3431 75 86C75 87.6569 76.3431 89 78 89Z" fill="#9B9B9B"/>
<path d="M62 89C63.6569 89 65 87.6569 65 86C65 84.3431 63.6569 83 62 83C60.3431 83 59 84.3431 59 86C59 87.6569 60.3431 89 62 89Z" fill="#9B9B9B"/>
</svg>
