<svg width="140" height="156" viewBox="0 0 140 156" fill="none" xmlns="http://www.w3.org/2000/svg">
<path d="M23 127V18.7377C23 17.2444 21.4 16 19 16C16.6 16 15 17.2444 15 18.7377V127H23Z" fill="#F8B50E"/>
<path d="M21.3194 22.3582C20.6546 22.1777 20 22.6783 20 23.3671V68.2606C20 68.9525 20.6599 69.4535 21.3263 69.2676L102.889 46.5175C103.912 46.2322 103.907 44.7799 102.882 44.5016L21.3194 22.3582Z" fill="#18B5CB"/>
<path d="M77.5358 56.9612C76.8697 56.7764 76.2108 57.2773 76.2108 57.9686V90.6247C76.2108 91.316 76.8697 91.8169 77.5358 91.6321L136.37 75.304C137.391 75.0206 137.391 73.5727 136.37 73.2893L77.5358 56.9612Z" fill="#18B5CB"/>
<path d="M102.226 39.317C102.892 39.134 103.549 39.6348 103.549 40.325V67.5082C103.549 68.2008 102.887 68.702 102.22 68.5147L53.3177 54.777C52.2979 54.4905 52.3019 53.0433 53.3233 52.7624L102.226 39.317Z" fill="#18B5CB"/>
<path d="M18 24C24.6274 24 30 18.6274 30 12C30 5.37258 24.6274 0 18 0C11.3726 0 6 5.37258 6 12C6 18.6274 11.3726 24 18 24Z" fill="#18B5CB"/>
<path d="M72 126.949V121.255C72 118.409 70.5177 116 67.7647 116C65.0118 116 63.5294 118.409 63.5294 121.255V126.949H50.8236V121.255C50.8236 118.409 49.3412 116 46.5883 116C43.8353 116 42.353 118.409 42.353 121.255V126.949H29.6471V121.255C29.6471 118.409 28.1648 116 25.4118 116C22.6589 116 21.1765 118.409 21.1765 121.255V126.949H8.47066V121.255C8.47066 118.409 6.98831 116 4.23537 116C1.48244 116 8.61764e-05 118.409 8.61764e-05 121.255V126.949L0 156H72V126.949Z" fill="#747474"/>
<mask id="mask0_805_1391" style="mask-type:alpha" maskUnits="userSpaceOnUse" x="0" y="116" width="72" height="40">
<path d="M72 126.949V121.255C72 118.409 70.5177 116 67.7647 116C65.0118 116 63.5294 118.409 63.5294 121.255V126.949H50.8236V121.255C50.8236 118.409 49.3412 116 46.5883 116C43.8353 116 42.353 118.409 42.353 121.255V126.949H29.6471V121.255C29.6471 118.409 28.1648 116 25.4118 116C22.6589 116 21.1765 118.409 21.1765 121.255V126.949H8.47066V121.255C8.47066 118.409 6.98831 116 4.23537 116C1.48244 116 8.61764e-05 118.409 8.61764e-05 121.255V126.949L0 156H72V126.949Z" fill="#545454"/>
</mask>
<g mask="url(#mask0_805_1391)">
<path d="M8.49988 116H71.9998L71.9999 144.5L8.49988 125.848V116Z" fill="#383838"/>
</g>
<path d="M52 142C53.6569 142 55 140.657 55 139C55 137.343 53.6569 136 52 136C50.3431 136 49 137.343 49 139C49 140.657 50.3431 142 52 142Z" fill="#9B9B9B"/>
<path d="M36 142C37.6569 142 39 140.657 39 139C39 137.343 37.6569 136 36 136C34.3431 136 33 137.343 33 139C33 140.657 34.3431 142 36 142Z" fill="#9B9B9B"/>
<path d="M20 142C21.6569 142 23 140.657 23 139C23 137.343 21.6569 136 20 136C18.3431 136 17 137.343 17 139C17 140.657 18.3431 142 20 142Z" fill="#9B9B9B"/>
</svg>
