<svg width="156" height="156" viewBox="0 0 156 156" fill="none" xmlns="http://www.w3.org/2000/svg">
<path d="M65 129V31.4664C65 30.1211 63.4 29 61 29C58.6 29 57 30.1211 57 31.4664V129H65Z" fill="#F8B50E"/>
<path d="M63.3878 35.481C62.7086 35.2456 62 35.75 62 36.4688V81.1556C62 81.8781 62.7155 82.3828 63.3961 82.1404L126.993 59.4951C127.923 59.1638 127.918 57.8459 126.984 57.5224L63.3878 35.481Z" fill="#18B5CB"/>
<path d="M107.426 55.4941C106.746 55.253 106.032 55.7577 106.032 56.4795V88.9268C106.032 89.6486 106.746 90.1533 107.426 89.9122L153.219 73.6886C154.147 73.3596 154.147 72.0467 153.219 71.7177L107.426 55.4941Z" fill="#18B5CB"/>
<path d="M126.055 50.4885C126.735 50.2498 127.446 50.7544 127.446 51.4749V78.4489C127.446 79.1724 126.729 79.6772 126.048 79.4329L88.0358 65.8009C87.1091 65.4686 87.1135 64.1565 88.0425 63.8304L126.055 50.4885Z" fill="#18B5CB"/>
<path d="M60 37C66.6274 37 72 31.6274 72 25C72 18.3726 66.6274 13 60 13C53.3726 13 48 18.3726 48 25C48 31.6274 53.3726 37 60 37Z" fill="#18B5CB"/>
<path d="M114 126.949V121.255C114 118.409 112.518 116 109.765 116C107.012 116 105.529 118.409 105.529 121.255V126.949H92.8236V121.255C92.8236 118.409 91.3412 116 88.5883 116C85.8353 116 84.353 118.409 84.353 121.255V126.949H71.6471V121.255C71.6471 118.409 70.1648 116 67.4118 116C64.6589 116 63.1765 118.409 63.1765 121.255V126.949H50.4707V121.255C50.4707 118.409 48.9883 116 46.2354 116C43.4824 116 42.0001 118.409 42.0001 121.255V126.949L42 156H114V126.949Z" fill="#747474"/>
<mask id="mask0_1407_932" style="mask-type:alpha" maskUnits="userSpaceOnUse" x="42" y="116" width="72" height="40">
<path d="M114 126.949V121.255C114 118.409 112.518 116 109.765 116C107.012 116 105.529 118.409 105.529 121.255V126.949H92.8236V121.255C92.8236 118.409 91.3412 116 88.5883 116C85.8353 116 84.353 118.409 84.353 121.255V126.949H71.6471V121.255C71.6471 118.409 70.1648 116 67.4118 116C64.6589 116 63.1765 118.409 63.1765 121.255V126.949H50.4707V121.255C50.4707 118.409 48.9883 116 46.2354 116C43.4824 116 42.0001 118.409 42.0001 121.255V126.949L42 156H114V126.949Z" fill="#545454"/>
</mask>
<g mask="url(#mask0_1407_932)">
<path d="M50.5 116H114L114 144.5L50.5 125.848V116Z" fill="#383838"/>
</g>
<path d="M94 142C95.6569 142 97 140.657 97 139C97 137.343 95.6569 136 94 136C92.3431 136 91 137.343 91 139C91 140.657 92.3431 142 94 142Z" fill="#9B9B9B"/>
<path d="M78 142C79.6569 142 81 140.657 81 139C81 137.343 79.6569 136 78 136C76.3431 136 75 137.343 75 139C75 140.657 76.3431 142 78 142Z" fill="#9B9B9B"/>
<path d="M62 142C63.6569 142 65 140.657 65 139C65 137.343 63.6569 136 62 136C60.3431 136 59 137.343 59 139C59 140.657 60.3431 142 62 142Z" fill="#9B9B9B"/>
</svg>
