<svg width="156" height="156" viewBox="0 0 156 156" fill="none" xmlns="http://www.w3.org/2000/svg">
<path d="M71 127V21.6637C71 20.2108 69.4 19 67 19C64.6 19 63 20.2108 63 21.6637V127H71Z" fill="#F8B50E"/>
<path d="M54 145V103.061C54 102.482 52.4 102 50 102C47.6 102 46 102.482 46 103.061V145H54Z" fill="#F8B50E"/>
<path d="M65 24C71.6274 24 77 18.6274 77 12C77 5.37258 71.6274 0 65 0C58.3726 0 53 5.37258 53 12C53 18.6274 58.3726 24 65 24Z" fill="#CB188E"/>
<path d="M69.2002 22.3442C68.599 22.1718 68 22.6231 68 23.2486V70.742C68 71.3703 68.6041 71.822 69.2068 71.6445L150.895 47.5769C151.799 47.3107 151.794 46.0296 150.889 45.77L69.2002 22.3442Z" fill="#CB188E"/>
<path d="M57.8184 84.3127C58.4153 84.1548 59 84.6048 59 85.2223V112.951C59 113.568 58.4153 114.018 57.8184 113.86L5.43647 99.9959C4.50297 99.7489 4.50297 98.4239 5.43647 98.1768L57.8184 84.3127Z" fill="#CB188E"/>
<path d="M13.3212 97.6631C12.7254 97.5084 12.1438 97.9581 12.1438 98.5738V116.777C12.1438 117.395 12.729 117.845 13.3261 117.686L47.9886 108.487C48.9238 108.239 48.9203 106.91 47.9838 106.667L13.3212 97.6631Z" fill="#CB188E"/>
<rect x="67" y="86" width="61" height="65" fill="#747474"/>
<path d="M133 68.9487V63.2554C133 60.4087 131.518 58 128.765 58C126.012 58 124.529 60.4087 124.529 63.2554V68.9487H111.824V63.2554C111.824 60.4087 110.341 58 107.588 58C104.835 58 103.353 60.4087 103.353 63.2554V68.9487H90.6471V63.2554C90.6471 60.4087 89.1648 58 86.4118 58C83.6589 58 82.1765 60.4087 82.1765 63.2554V68.9487H69.4707V63.2554C69.4707 60.4087 67.9883 58 65.2354 58C62.4824 58 61.0001 60.4087 61.0001 63.2554V68.9487L61 98H69.4707H97H124.529H133V68.9487Z" fill="#383838"/>
<path d="M113 84C114.657 84 116 82.6569 116 81C116 79.3431 114.657 78 113 78C111.343 78 110 79.3431 110 81C110 82.6569 111.343 84 113 84Z" fill="#9B9B9B"/>
<path d="M97 84C98.6569 84 100 82.6569 100 81C100 79.3431 98.6569 78 97 78C95.3431 78 94 79.3431 94 81C94 82.6569 95.3431 84 97 84Z" fill="#9B9B9B"/>
<path d="M81 84C82.6569 84 84 82.6569 84 81C84 79.3431 82.6569 78 81 78C79.3431 78 78 79.3431 78 81C78 82.6569 79.3431 84 81 84Z" fill="#9B9B9B"/>
<path d="M103 126.949V121.255C103 118.409 101.518 116 98.7647 116C96.0118 116 94.5294 118.409 94.5294 121.255V126.949H81.8236V121.255C81.8236 118.409 80.3412 116 77.5883 116C74.8353 116 73.353 118.409 73.353 121.255V126.949H60.6471V121.255C60.6471 118.409 59.1648 116 56.4118 116C53.6589 116 52.1765 118.409 52.1765 121.255V126.949H39.4707V121.255C39.4707 118.409 37.9883 116 35.2354 116C32.4824 116 31.0001 118.409 31.0001 121.255V126.949L31 156H103V126.949Z" fill="#747474"/>
<mask id="mask0_1407_1016" style="mask-type:alpha" maskUnits="userSpaceOnUse" x="31" y="116" width="72" height="40">
<path d="M103 126.949V121.255C103 118.409 101.518 116 98.7647 116C96.0118 116 94.5294 118.409 94.5294 121.255V126.949H81.8236V121.255C81.8236 118.409 80.3412 116 77.5883 116C74.8353 116 73.353 118.409 73.353 121.255V126.949H60.6471V121.255C60.6471 118.409 59.1648 116 56.4118 116C53.6589 116 52.1765 118.409 52.1765 121.255V126.949H39.4707V121.255C39.4707 118.409 37.9883 116 35.2354 116C32.4824 116 31.0001 118.409 31.0001 121.255V126.949L31 156H103V126.949Z" fill="#545454"/>
</mask>
<g mask="url(#mask0_1407_1016)">
<path d="M39.5 116H103L103 144.5L39.5 125.848V116Z" fill="#383838"/>
</g>
<path d="M83 142C84.6569 142 86 140.657 86 139C86 137.343 84.6569 136 83 136C81.3431 136 80 137.343 80 139C80 140.657 81.3431 142 83 142Z" fill="#9B9B9B"/>
<path d="M67 142C68.6569 142 70 140.657 70 139C70 137.343 68.6569 136 67 136C65.3431 136 64 137.343 64 139C64 140.657 65.3431 142 67 142Z" fill="#9B9B9B"/>
<path d="M51 142C52.6569 142 54 140.657 54 139C54 137.343 52.6569 136 51 136C49.3431 136 48 137.343 48 139C48 140.657 49.3431 142 51 142Z" fill="#9B9B9B"/>
</svg>
