<svg width="22" height="22" viewBox="0 0 22 22" fill="none" xmlns="http://www.w3.org/2000/svg">
<path d="M4.38672 21.2852C3.21484 21.2852 2.32812 20.9922 1.72656 20.4062C1.125 19.8203 0.824219 18.9414 0.824219 17.7695V4.25781C0.824219 3.08594 1.125 2.20703 1.72656 1.62109C2.32812 1.02734 3.21484 0.730469 4.38672 0.730469H17.8281C19.0078 0.730469 19.8945 1.02734 20.4883 1.62109C21.0898 2.21484 21.3906 3.09375 21.3906 4.25781V17.7695C21.3906 18.9336 21.0898 19.8086 20.4883 20.3945C19.8945 20.9883 19.0078 21.2852 17.8281 21.2852H4.38672ZM4.46875 19.3047H17.7461C18.2695 19.3047 18.6758 19.1641 18.9648 18.8828C19.2539 18.6016 19.3984 18.1836 19.3984 17.6289V4.39844C19.3984 3.84375 19.2539 3.42578 18.9648 3.14453C18.6758 2.86328 18.2695 2.72266 17.7461 2.72266H4.46875C3.9375 2.72266 3.53125 2.86328 3.25 3.14453C2.96875 3.42578 2.82812 3.84375 2.82812 4.39844V17.6289C2.82812 18.1836 2.96875 18.6016 3.25 18.8828C3.53125 19.1641 3.9375 19.3047 4.46875 19.3047ZM16.8203 10.9727C16.8203 11.2305 16.707 11.4727 16.4805 11.6992L12.7305 15.4258C12.5586 15.5977 12.3477 15.6836 12.0977 15.6836C11.8555 15.6836 11.6523 15.6016 11.4883 15.4375C11.332 15.2656 11.2539 15.0586 11.2539 14.8164C11.2539 14.5586 11.3438 14.3477 11.5234 14.1836L12.8945 12.8594L14.1836 11.793L11.875 11.8867H6.28516C6.01953 11.8867 5.80078 11.8008 5.62891 11.6289C5.46484 11.457 5.38281 11.2383 5.38281 10.9727C5.38281 10.7148 5.46484 10.5 5.62891 10.3281C5.80078 10.1484 6.01953 10.0586 6.28516 10.0586H11.875L14.1836 10.1641L12.8945 9.10938L11.5234 7.77344C11.3438 7.60156 11.2539 7.38672 11.2539 7.12891C11.2539 6.89453 11.332 6.69531 11.4883 6.53125C11.6523 6.36719 11.8555 6.28516 12.0977 6.28516C12.3555 6.28516 12.5664 6.36328 12.7305 6.51953L16.4805 10.2578C16.707 10.4922 16.8203 10.7305 16.8203 10.9727Z" fill="#F8B50E"/>
</svg>
