<svg width="22" height="22" viewBox="0 0 22 22" fill="none" xmlns="http://www.w3.org/2000/svg">
<path d="M4.38672 21.2852C3.21484 21.2852 2.32812 20.9922 1.72656 20.4062C1.125 19.8203 0.824219 18.9414 0.824219 17.7695V4.25781C0.824219 3.08594 1.125 2.20703 1.72656 1.62109C2.32812 1.02734 3.21484 0.730469 4.38672 0.730469H17.8281C19.0078 0.730469 19.8945 1.02734 20.4883 1.62109C21.0898 2.21484 21.3906 3.09375 21.3906 4.25781V17.7695C21.3906 18.9336 21.0898 19.8086 20.4883 20.3945C19.8945 20.9883 19.0078 21.2852 17.8281 21.2852H4.38672ZM4.46875 19.3047H17.7461C18.2695 19.3047 18.6758 19.1641 18.9648 18.8828C19.2539 18.6016 19.3984 18.1836 19.3984 17.6289V4.39844C19.3984 3.84375 19.2539 3.42578 18.9648 3.14453C18.6758 2.86328 18.2695 2.72266 17.7461 2.72266H4.46875C3.9375 2.72266 3.53125 2.86328 3.25 3.14453C2.96875 3.42578 2.82812 3.84375 2.82812 4.39844V17.6289C2.82812 18.1836 2.96875 18.6016 3.25 18.8828C3.53125 19.1641 3.9375 19.3047 4.46875 19.3047ZM5.40625 10.9727C5.40625 10.7305 5.51953 10.4922 5.74609 10.2578L9.50781 6.51953C9.67188 6.36328 9.87891 6.28516 10.1289 6.28516C10.3711 6.28516 10.5703 6.36719 10.7266 6.53125C10.8906 6.69531 10.9727 6.89453 10.9727 7.12891C10.9727 7.38672 10.8828 7.60156 10.7031 7.77344L9.34375 9.10938L8.05469 10.1641L10.3516 10.0586H15.9531C16.2109 10.0586 16.4219 10.1484 16.5859 10.3281C16.7578 10.5 16.8438 10.7148 16.8438 10.9727C16.8438 11.2383 16.7617 11.457 16.5977 11.6289C16.4336 11.8008 16.2188 11.8867 15.9531 11.8867H10.3516L8.04297 11.793L9.34375 12.8594L10.7031 14.1836C10.8828 14.3477 10.9727 14.5586 10.9727 14.8164C10.9727 15.0586 10.8906 15.2656 10.7266 15.4375C10.5703 15.6016 10.3711 15.6836 10.1289 15.6836C9.88672 15.6836 9.67969 15.5977 9.50781 15.4258L5.74609 11.6992C5.51953 11.4727 5.40625 11.2305 5.40625 10.9727Z" fill="#F8B50E"/>
</svg>
