<svg width="22" height="22" viewBox="0 0 22 22" fill="none" xmlns="http://www.w3.org/2000/svg">
<path d="M4.38672 21.2852C3.21484 21.2852 2.32812 20.9922 1.72656 20.4062C1.125 19.8203 0.824219 18.9414 0.824219 17.7695V4.25781C0.824219 3.08594 1.125 2.20703 1.72656 1.62109C2.32812 1.02734 3.21484 0.730469 4.38672 0.730469H17.8281C19.0078 0.730469 19.8945 1.02734 20.4883 1.62109C21.0898 2.21484 21.3906 3.09375 21.3906 4.25781V17.7695C21.3906 18.9336 21.0898 19.8086 20.4883 20.3945C19.8945 20.9883 19.0078 21.2852 17.8281 21.2852H4.38672ZM4.46875 19.3047H17.7461C18.2695 19.3047 18.6758 19.1641 18.9648 18.8828C19.2539 18.6016 19.3984 18.1836 19.3984 17.6289V4.39844C19.3984 3.84375 19.2539 3.42578 18.9648 3.14453C18.6758 2.86328 18.2695 2.72266 17.7461 2.72266H4.46875C3.9375 2.72266 3.53125 2.86328 3.25 3.14453C2.96875 3.42578 2.82812 3.84375 2.82812 4.39844V17.6289C2.82812 18.1836 2.96875 18.6016 3.25 18.8828C3.53125 19.1641 3.9375 19.3047 4.46875 19.3047ZM9.12109 15.3438C8.93359 15.4531 8.74609 15.5 8.55859 15.4844C8.37109 15.4688 8.21484 15.4023 8.08984 15.2852C7.97266 15.1602 7.91406 15 7.91406 14.8047V7.21094C7.91406 7.00781 7.97656 6.85156 8.10156 6.74219C8.23438 6.625 8.39453 6.55859 8.58203 6.54297C8.76953 6.51953 8.94922 6.55859 9.12109 6.66016L15.3438 10.3516C15.5156 10.4531 15.6289 10.5898 15.6836 10.7617C15.7383 10.9258 15.7383 11.0938 15.6836 11.2656C15.6289 11.4297 15.5156 11.5625 15.3438 11.6641L9.12109 15.3438Z" fill="#383838"/>
</svg>
